<svg xmlns="http://www.w3.org/2000/svg" width="30" height="29.994" viewBox="0 0 7.937 7.936"><defs><filter id="a" width="30" height="29.994" x="0" y="0" color-interpolation-filters="sRGB" filterUnits="userSpaceOnUse"><feFlood flood-opacity="0" result="BackgroundImageFix"/><feBlend in="SourceGraphic" in2="BackgroundImageFix" result="shape"/><feColorMatrix in="SourceAlpha" result="hardAlpha" values="0 0 0 0 0 0 0 0 0 0 0 0 0 0 0 0 0 0 127 0"/><feOffset dy="-1"/><feComposite in2="hardAlpha" k2="-1" k3="1" operator="arithmetic"/><feColorMatrix values="0 0 0 0 0 0 0 0 0 0 0 0 0 0 0 0 0 0 0.1 0"/><feBlend in2="shape" result="effect1_innerShadow"/></filter><filter id="c" width="30" height="29.994" x="0" y="0" color-interpolation-filters="sRGB" filterUnits="userSpaceOnUse"><feFlood flood-opacity="0" result="BackgroundImageFix"/><feBlend in="SourceGraphic" in2="BackgroundImageFix" result="shape"/><feColorMatrix in="SourceAlpha" result="hardAlpha" values="0 0 0 0 0 0 0 0 0 0 0 0 0 0 0 0 0 0 127 0"/><feOffset dy="-1"/><feComposite in2="hardAlpha" k2="-1" k3="1" operator="arithmetic"/><feColorMatrix values="0 0 0 0 0 0 0 0 0 0 0 0 0 0 0 0 0 0 0.1 0"/><feBlend in2="shape" result="effect1_innerShadow"/></filter><linearGradient id="b" x1="0" x2="0" y1="0" y2="29.994" gradientUnits="userSpaceOnUse"><stop stop-color="#FFCD69"/><stop offset="1" stop-color="#FDCE71"/></linearGradient></defs><g fill="none" clip-rule="evenodd"><path d="M30.002 11.267a1.9 1.9 0 0 0-1.509-1.274l-8.07-1.245-3.602-7.732c-.337-.63-.981-1.07-1.714-1.07-.732 0-1.376.44-1.713 1.07L9.79 8.748 1.677 9.993c-.659.103-1.23.6-1.464 1.274a1.81 1.81 0 0 0 .439 1.904l5.888 6.02-1.406 8.568c-.103.703.205 1.406.761 1.845.337.234.703.337 1.113.337.293 0 .6-.073.908-.235l7.191-3.983 7.191 3.983c.308.162.615.235.908.235.41 0 .777-.103 1.113-.337.557-.44.864-1.142.762-1.845l-1.406-8.568 5.888-6.02a1.81 1.81 0 0 0 .439-1.904z" filter="url(#a)" transform="matrix(.26303 0 0 .26458 0 .898)"/><path fill="url(#b)" fill-rule="evenodd" d="M15 0c-.732 0-1.377.44-1.713 1.07L9.684 8.801 1.57 10.047c-.66.102-1.23.6-1.465 1.274a1.81 1.81 0 0 0 .44 1.904l5.887 6.02-1.406 8.567c-.102.703.205 1.406.762 1.846.337.234.703.336 1.113.336.293 0 .6-.073.908-.234L15 25.776Z" filter="url(#c)" transform="matrix(.2651 0 0 .26459 0 0)"/></g></svg>