<svg xmlns="http://www.w3.org/2000/svg" width="30" height="29.994" viewBox="0 0 7.937 7.936"><defs><filter id="a" width="30" height="29.994" x="0" y="0" color-interpolation-filters="sRGB" filterUnits="userSpaceOnUse"><feFlood flood-opacity="0" result="BackgroundImageFix"/><feBlend in="SourceGraphic" in2="BackgroundImageFix" result="shape"/><feColorMatrix in="SourceAlpha" result="hardAlpha" values="0 0 0 0 0 0 0 0 0 0 0 0 0 0 0 0 0 0 127 0"/><feOffset dy="-1"/><feComposite in2="hardAlpha" k2="-1" k3="1" operator="arithmetic"/><feColorMatrix values="0 0 0 0 0 0 0 0 0 0 0 0 0 0 0 0 0 0 0.1 0"/><feBlend in2="shape" result="effect1_innerShadow"/></filter><filter id="c" width="30" height="29.994" x="0" y="0" color-interpolation-filters="sRGB" filterUnits="userSpaceOnUse"><feFlood flood-opacity="0" result="BackgroundImageFix"/><feBlend in="SourceGraphic" in2="BackgroundImageFix" result="shape"/><feColorMatrix in="SourceAlpha" result="hardAlpha" values="0 0 0 0 0 0 0 0 0 0 0 0 0 0 0 0 0 0 127 0"/><feOffset dy="-1"/><feComposite in2="hardAlpha" k2="-1" k3="1" operator="arithmetic"/><feColorMatrix values="0 0 0 0 0 0 0 0 0 0 0 0 0 0 0 0 0 0 0.1 0"/><feBlend in2="shape" result="effect1_innerShadow"/></filter><filter id="b" width="30" height="29.994" x="0" y="0" color-interpolation-filters="sRGB" filterUnits="userSpaceOnUse"><feFlood flood-opacity="0" result="BackgroundImageFix"/><feBlend in="SourceGraphic" in2="BackgroundImageFix" result="shape"/><feColorMatrix in="SourceAlpha" result="hardAlpha" values="0 0 0 0 0 0 0 0 0 0 0 0 0 0 0 0 0 0 127 0"/><feOffset dy="-1"/><feComposite in2="hardAlpha" k2="-1" k3="1" operator="arithmetic"/><feColorMatrix values="0 0 0 0 0 0 0 0 0 0 0 0 0 0 0 0 0 0 0.1 0"/><feBlend in2="shape" result="effect1_innerShadow"/></filter><filter id="d" width="30" height="29.994" x="0" y="0" color-interpolation-filters="sRGB" filterUnits="userSpaceOnUse"><feFlood flood-opacity="0" result="BackgroundImageFix"/><feBlend in="SourceGraphic" in2="BackgroundImageFix" result="shape"/><feColorMatrix in="SourceAlpha" result="hardAlpha" values="0 0 0 0 0 0 0 0 0 0 0 0 0 0 0 0 0 0 127 0"/><feOffset dy="-1"/><feComposite in2="hardAlpha" k2="-1" k3="1" operator="arithmetic"/><feColorMatrix values="0 0 0 0 0 0 0 0 0 0 0 0 0 0 0 0 0 0 0.1 0"/><feBlend in2="shape" result="effect1_innerShadow"/></filter></defs><g fill="none" clip-rule="evenodd"><path fill="#e0e0e0" fill-rule="evenodd" d="M15.107-.054c-.732 0-1.376.44-1.713 1.07L9.79 8.748 1.677 9.993c-.659.103-1.23.6-1.464 1.274a1.81 1.81 0 0 0 .439 1.904l5.888 6.02-1.406 8.568c-.103.703.205 1.406.761 1.845.337.234.703.337 1.113.337.293 0 .6-.073.908-.235l7.191-3.983S15 0 15.107-.054z" filter="url(#a)" transform="matrix(.26459 0 0 .26458 0 0)"/><path d="M29.358 6.246a1.897 1.897 0 0 0-1.508-1.274l-8.07-1.245-3.603-7.733c-.337-.63-.98-1.069-1.713-1.069-.733 0-1.377.44-1.714 1.07L9.147 3.726 1.034 4.972c-.66.103-1.23.6-1.465 1.274A1.81 1.81 0 0 0 .01 8.15l5.887 6.02-1.406 8.567c-.102.703.205 1.406.762 1.846.336.234.703.336 1.113.336.293 0 .6-.073.908-.234l7.19-3.984 7.192 3.984c.307.161.615.234.908.234.41 0 .776-.102 1.113-.336.556-.44.864-1.143.761-1.846l-1.406-8.567 5.888-6.02a1.81 1.81 0 0 0 .44-1.904z" filter="url(#b)" transform="matrix(.26459 0 0 .26458 0 0)"/><path d="M28.447 7.104a1.9 1.9 0 0 0-1.509-1.274l-8.07-1.245-3.602-7.733c-.337-.63-.982-1.069-1.714-1.069s-1.377.44-1.713 1.07L8.236 4.584.122 5.83c-.659.103-1.23.6-1.465 1.274a1.81 1.81 0 0 0 .44 1.904l5.887 6.02-1.406 8.567c-.102.703.205 1.406.762 1.846.337.234.703.336 1.113.336.293 0 .6-.073.908-.234l7.191-3.984 7.191 3.984c.308.161.615.234.908.234.41 0 .776-.102 1.113-.336.557-.44.864-1.143.762-1.846l-1.406-8.567 5.887-6.02a1.81 1.81 0 0 0 .44-1.904z" filter="url(#c)" transform="matrix(.26459 0 0 .26458 0 0)"/><path d="M30.002 11.267a1.9 1.9 0 0 0-1.509-1.274l-8.07-1.245-3.602-7.732c-.337-.63-.981-1.07-1.714-1.07-.732 0-1.376.44-1.713 1.07L9.79 8.748 1.677 9.993c-.659.103-1.23.6-1.464 1.274a1.81 1.81 0 0 0 .439 1.904l5.888 6.02-1.406 8.568c-.103.703.205 1.406.761 1.845.337.234.703.337 1.113.337.293 0 .6-.073.908-.235l7.191-3.983 7.191 3.983c.308.162.615.235.908.235.41 0 .777-.103 1.113-.337.557-.44.864-1.142.762-1.845l-1.406-8.568 5.888-6.02a1.81 1.81 0 0 0 .439-1.904z" filter="url(#d)" transform="translate(-2.43 .29) scale(.26458)"/></g></svg>